<svg width="49" height="65" viewBox="0 0 49 65" fill="none" xmlns="http://www.w3.org/2000/svg">
<path d="M7.735 23.07C7.735 23.07 8.4 23.105 8.68 23.105C8.82 23.105 9.485 23.105 9.625 23.105C9.8 23.07 10.605 22.825 10.78 22.79C10.885 22.755 11.27 22.685 11.34 22.685C11.655 22.615 12.215 22.37 12.565 22.335C14.35 20.9 15.05 20.06 16.03 17.89C17.08 15.545 17.325 13.13 17.43 10.645C17.465 10.4 17.465 9.77 17.465 9.525C17.395 8.86 17.465 8.23 17.325 7.565C17.29 7.39 17.01 6.13 17.01 5.99C16.87 5.43 16.31 4.59 16.345 4.17C16.345 4.135 16.345 4.135 16.345 4.135C17.15 3.785 17.885 3.12 18.76 2.875C18.865 2.735 19.215 2 19.215 1.895C19.215 1.755 18.97 1.755 18.9 1.755C18.13 1.72 17.43 2.665 16.695 2.875C16.555 2.91 15.925 3.12 15.855 3.155C15.33 2.84 14.945 2.07 14.385 1.685C13.16 0.739999 11.97 0.214999 10.36 0.214999C9.73 0.18 9.135 0.424999 8.505 0.424999C8.54 0.0749989 8.505 0.0399994 8.12 0.0399994C7.525 0.0399994 6.86 0.0399994 6.265 0.0749989C5.705 0.0749989 4.935 0.32 4.9 0.985C4.9 1.475 4.97 2.035 4.935 2.56C4.83 4.275 4.445 5.99 4.41 7.705C4.235 8.055 4.27 8.37 4.2 8.72C4.06 9.49 3.92 9.84 3.85 10.575C3.85 10.68 3.815 11.205 3.815 11.275C3.605 12.675 3.325 14.005 3.22 15.405C3.045 16.735 3.15 18.66 2.695 19.92C2.66 19.92 2.59 19.92 2.555 19.92C2.555 19.675 0.63 19.185 0.035 20.9C-0.14 22.055 0.875 22.825 1.33 22.755C1.4 22.755 1.82 22.685 1.82 22.685C2.38 22.545 3.185 22.125 3.325 21.67C3.64 21.88 5.11 22.79 7.735 23.07ZM3.675 20.76C3.71 20.585 3.885 20.13 3.955 20.025L5.075 16.84C5.53 15.895 5.355 14.425 5.845 13.48C6.16 11.66 6.475 10.33 6.755 8.545C7.35 7.11 7.315 5.15 7.91 3.68H7.98C8.05 3.995 9.31 5.185 11.69 4.905H13.44C13.72 4.765 15.19 4.415 15.295 4.415C15.68 4.45 16.065 6.55 16.135 7.04C16.485 8.545 16.52 9.91 16.485 11.275C16.45 12.465 16.31 13.725 16.03 14.88C15.89 15.3 15.75 15.755 15.645 16.175C15.05 18.03 14.245 19.745 12.705 21.04C12.53 21.145 12.425 21.215 12.285 21.355C11.725 21.635 10.955 21.95 10.325 22.055C9.24 22.44 6.65 22.58 3.675 20.76ZM0.91 21.355C0.91 20.9 1.085 20.55 1.505 20.55C1.645 20.55 2.17 20.445 2.485 20.97C2.485 21.355 2.1 21.775 1.68 21.775C1.365 21.775 0.875 21.775 0.91 21.355ZM4.025 15.93C4.06 15.825 4.55 15.335 4.725 15.335C4.48 16.245 4.2 16.805 3.99 17.715C3.955 17.785 3.745 18.555 3.64 18.625C3.64 18.555 3.64 18.38 3.64 18.345C3.745 17.645 3.99 16.77 4.025 15.93ZM5.425 11.66C5.39 12.255 5.145 13.34 5.005 13.9C4.83 14.075 4.34 14.565 4.165 14.67C4.165 14.635 4.165 14.565 4.165 14.565C4.305 13.83 4.375 13.095 4.41 12.64C4.41 12.57 4.48 12.29 4.48 12.29L5.425 11.66ZM5.005 9.035C5.11 8.93 6.335 7.985 5.985 8.23C5.95 8.65 5.915 8.86 5.845 9.245C5.81 9.315 5.705 10.05 5.705 10.05C5.845 9.77 5.285 11.275 5.145 11.065C5.04 11.205 4.69 11.485 4.69 11.485H4.62C4.62 11.45 4.655 11.17 4.655 11.135C4.76 10.54 4.83 9.595 5.005 9.035ZM7.385 2.28C7.385 2.35 7.455 2.42 7.455 2.42C7.245 2.77 7.105 3.995 6.79 4.38C6.58 4.52 5.81 5.29 5.81 5.29H5.635L5.705 3.715C5.705 3.505 7.175 2.35 7.385 2.28ZM8.47 2.245C8.54 1.44 9.065 1.16 9.835 1.16C10.465 1.195 11.095 1.195 11.69 1.37C11.865 1.405 12.495 1.685 12.6 1.72C12.985 1.895 14.49 2.875 14.455 3.33C14.455 3.435 14.49 3.575 14.385 3.61C13.895 3.82 11.725 4.065 11.235 4.065C10.15 4.065 8.4 3.645 8.47 2.245ZM5.915 1.3C6.545 0.879999 7.28 0.67 7.56 0.985C7.42 1.16 6.09 2.28 5.845 2.28L5.915 1.3ZM6.72 5.36C6.685 5.955 6.405 6.725 6.265 7.285C6.09 7.46 5.425 7.845 5.25 7.95C5.25 7.915 5.25 7.845 5.25 7.845C5.285 7.25 5.355 7.04 5.495 6.445C5.495 6.375 5.565 6.095 5.565 6.095L6.72 5.36ZM19.0911 21.285C19.1961 21.39 19.5811 21.74 19.6511 21.845C19.6861 21.88 19.8611 21.88 19.8611 21.915C20.4211 22.44 21.4711 22.895 22.1711 22.895C22.2411 22.895 22.2761 22.895 22.2761 22.895C22.3111 22.895 22.6261 22.965 22.6611 22.965C22.7311 22.965 23.5711 22.965 23.6411 22.965C23.6761 22.965 23.9561 22.93 24.0611 22.93L24.2011 22.825C24.2361 22.825 24.4811 22.685 24.5161 22.72C26.7911 21.67 27.9811 20.41 29.1011 18.275C29.4161 17.785 29.6261 17.12 29.7661 16.665C29.8361 16.455 29.5211 15.51 29.0661 16.385C28.9261 16.63 28.8561 16.91 28.7511 17.19C28.4361 18.135 27.8761 18.59 27.0711 19.71C26.1261 20.69 24.8661 21.95 23.3961 21.95C23.2211 21.95 22.4861 21.88 22.3111 21.81C22.2761 21.81 22.1361 21.635 22.0661 21.635C22.0311 21.565 21.8561 21.53 21.8211 21.53C21.1211 20.83 21.0511 19.885 21.0511 18.905C21.0511 18.31 21.0511 17.855 21.0861 17.225C21.1211 17.015 21.5411 14.11 21.7511 13.97C22.0661 13.795 22.3811 13.865 22.6961 13.76C23.5011 13.48 24.1311 13.13 24.8311 12.605C25.0761 12.325 25.3211 12.36 25.5311 11.975C25.6361 11.87 26.0211 11.485 26.0911 11.38C26.6161 10.575 27.2111 9.735 27.2111 8.685C27.2111 7.565 26.9661 6.445 25.5311 6.445C25.2861 6.445 24.8311 6.48 24.5861 6.62C24.5511 6.655 24.3411 6.76 24.3411 6.76C24.2711 6.795 23.9561 6.865 23.9211 6.865C23.8861 6.865 23.5011 7.005 23.4661 7.075C23.1511 7.215 22.9061 7.635 22.8011 7.635L21.7161 8.79C21.7161 8.79 21.6811 8.86 21.6111 8.895L21.5761 8.965C21.0511 9.595 20.7011 10.155 20.2111 10.785C20.0011 10.995 19.4761 11.94 19.3361 12.325C19.3011 12.465 19.0211 13.13 18.9861 13.27C18.9861 13.27 18.9861 13.305 18.9861 13.375C18.6711 14.355 18.3211 16.455 18.3211 17.54C18.3211 18.45 18.4261 19.71 18.7411 20.515C18.8811 20.76 19.0561 21.005 19.0911 21.285ZM19.4411 19.745C19.4411 19.57 19.9311 19.22 20.1411 19.22C20.1411 19.675 20.3511 20.935 20.3511 21.39C19.7911 21.32 19.4411 19.815 19.4411 19.745ZM19.1611 17.645L20.1761 16.98V17.05C20.1761 17.12 20.1761 17.155 20.1761 17.19C20.1761 17.365 20.0011 18.135 20.0011 18.38C19.9661 18.555 19.5111 19.045 19.2661 19.045L19.1611 18.415V17.645ZM20.9111 12.745C20.9461 12.85 20.7361 13.585 20.7361 13.725V13.76C20.7361 13.795 20.6661 14.075 20.6661 14.11C20.6311 14.18 20.5961 14.285 20.5961 14.285L19.5811 15.02H19.5111C19.5111 14.53 19.7211 13.795 19.9661 13.445C20.1761 13.13 20.5611 12.99 20.9111 12.745ZM20.4211 12.01C20.8411 11.24 21.2961 10.4 21.9611 9.875C21.9611 9.91 21.9611 9.91 21.9611 9.91C21.9611 9.91 21.9261 10.05 21.8561 10.05C21.8561 10.19 21.2961 11.555 21.2611 11.695C21.1561 11.905 20.5961 12.325 20.3861 12.5V12.465C20.3861 12.29 20.4911 12.15 20.4211 12.01ZM22.9411 9.7C23.1161 9.385 23.6761 8.51 23.8511 8.265C24.1661 7.74 24.8311 7.53 25.3561 7.53C26.2311 7.53 26.1611 8.055 26.1611 8.72C26.1611 9.49 25.9861 10.015 25.5311 10.645C25.4961 10.75 24.9711 11.17 24.8661 11.31C24.5161 11.835 22.6961 12.815 22.0311 12.815H21.9261C22.1711 12.15 22.3461 11.52 22.5211 10.89C22.6261 10.575 22.8361 9.98 22.9411 9.7ZM19.3011 16.035C19.2661 15.93 20.1061 15.545 20.3161 15.265V15.335C20.3511 15.685 20.2811 15.79 20.2811 16.105C20.0011 16.455 19.6861 16.56 19.3361 16.84C19.1961 16.63 19.3011 16.315 19.3011 16.035ZM22.5859 33.29C23.2159 34.235 24.1609 34.935 25.2809 34.9C28.4659 34.9 28.9209 30.105 29.1309 27.795C29.2709 26.535 29.2359 25.135 29.3059 23.98C29.4109 23.595 29.2359 23 29.5159 22.755C30.4259 22.02 31.0559 21.46 31.8959 20.69C31.9659 20.69 32.0709 20.585 32.1059 20.55L33.6109 18.975C33.7859 18.8 33.9609 18.52 34.0659 18.275C34.2759 17.855 34.8709 17.015 34.9759 16.525C35.1159 16.07 34.3809 15.58 34.1009 16.385C33.8209 17.19 32.8409 18.485 32.6659 18.73C32.2109 19.185 30.0409 21.46 29.4459 21.46C29.4459 21.005 29.4809 20.305 29.5509 19.85C29.7259 18.45 29.6909 16.945 30.0059 15.58C30.1809 14.88 30.3559 12.08 30.3209 11.31C30.2859 11.1 30.0759 10.82 29.8309 10.82C29.3059 10.855 29.3059 11.45 29.2009 11.87C29.2359 11.94 29.1309 13.935 29.1309 14.005C29.0959 14.285 29.0609 15.37 28.9909 15.685L28.5359 19.535C28.5709 19.64 28.5359 19.955 28.5359 19.955C28.5709 20.795 28.2559 21.53 28.2559 22.335C28.0109 22.545 27.7309 22.685 27.5209 22.86C26.8909 23.28 26.3659 23.805 25.7709 24.33C25.6659 24.435 25.2109 24.855 25.0709 24.925C24.3009 25.485 23.8109 26.15 23.3559 26.92C22.8309 27.655 22.6909 28.215 22.4109 29.02C22.3409 29.195 22.2709 29.23 22.3059 29.405C22.3059 29.58 22.3059 29.58 22.3059 29.65C22.3409 29.72 22.3409 29.72 22.3409 29.72C22.3409 29.755 22.2359 29.93 22.2359 29.93C22.2359 29.965 22.2009 30.21 22.2009 30.21C22.2009 30.595 22.1659 30.98 22.2009 31.365C22.2009 31.47 22.2009 31.925 22.2359 31.995C22.2709 31.995 22.3059 32.17 22.3059 32.17C22.2709 32.555 22.3409 32.94 22.5859 33.29ZM23.7059 33.22C23.7059 33.15 23.7409 33.08 23.8109 33.08C23.8809 32.975 24.3709 32.625 24.4759 32.555H24.5109H24.5459L24.6159 32.59L24.6509 33.85C24.3709 33.71 23.9159 33.43 23.7059 33.22ZM25.7709 33.71C25.7709 33.675 25.7359 33.395 25.7359 33.36C25.7359 33.255 25.7009 33.01 25.7009 33.01C25.7359 32.45 25.7009 31.19 25.6659 31.12C25.6659 30.98 25.9809 29.02 26.0859 28.355C26.1559 27.725 27.6609 24.19 28.3609 24.015C28.2559 26.675 28.1159 27.55 28.0109 28.285C27.9409 29.44 27.6959 31.015 27.2759 32.1C27.1359 32.52 26.2959 33.745 25.8409 33.745L25.7709 33.71ZM23.1109 31.19C23.6709 30.7 24.6159 30.21 24.6859 30.21L24.5809 31.155V31.19C24.6509 31.61 23.8109 32.415 23.4959 32.45C23.2509 32.415 23.1459 31.33 23.1109 31.19ZM23.4259 29.09C23.2859 28.985 24.6859 28.18 25.1059 27.97C25.1759 27.97 24.9309 28.81 24.9309 28.845C24.9309 29.3 23.5659 29.965 23.2859 30.35L23.4259 29.09ZM26.1559 25.45C26.1559 25.555 25.8759 26.185 25.7709 26.36C25.6659 26.5 25.3509 26.99 25.3159 27.06C24.8959 27.13 24.5809 27.585 24.1609 27.655V27.62C23.8109 26.885 25.7009 25.415 26.1559 25.415V25.45ZM29.8309 8.475C29.8659 8.51 30.1809 8.615 30.2509 8.615C30.2509 8.615 30.3559 8.65 30.4259 8.65C31.4059 8.65 31.9659 7.74 31.9309 6.865C31.8959 6.27 31.3359 5.57 30.7059 5.605C30.1109 5.605 29.7959 5.92 29.4809 6.305C29.3759 6.515 29.1309 6.62 29.0609 6.9C28.9909 7.11 29.0609 7.285 28.9909 7.565C29.0259 8.3 29.2709 8.405 29.8309 8.475ZM30.0409 7.215C30.0059 7.11 30.3209 6.655 30.4959 6.655C30.6359 6.655 30.9859 6.83 30.9859 6.97C31.0209 7.18 30.7409 7.67 30.4959 7.67H30.4259C30.1459 7.74 29.8309 7.355 30.0409 7.215ZM41.4296 18.31C41.3946 19.15 41.4996 19.43 41.5696 19.955C41.6396 20.34 41.7796 20.69 41.8846 21.04C42.0246 21.46 42.1646 21.81 42.4796 22.195C42.6546 22.37 42.6896 22.44 42.8996 22.58C43.4596 23.035 44.9646 23 45.5246 22.51C46.1896 22.125 46.8196 21.46 47.4146 20.375C47.5196 20.165 47.6946 19.85 47.7996 19.605C48.0096 19.115 48.2546 18.59 48.4296 18.065C48.6046 17.435 48.8146 17.015 48.8846 16.42C48.8846 16.14 48.1846 16.035 48.0796 16.35C48.0096 16.805 48.0446 16.525 47.9746 16.875C47.9046 17.12 47.6946 17.855 47.6246 18.065C47.4846 18.485 47.2046 18.8 47.0296 19.185C46.8546 19.535 46.7496 19.85 46.5396 20.235C45.9796 21.145 45.3496 21.88 44.0896 21.88C43.0046 21.88 42.6546 20.41 42.4796 19.57C42.4796 19.395 42.4796 18.765 42.4796 18.625C42.4796 18.415 42.4796 17.715 42.4796 17.68C42.5146 17.47 42.8296 16.28 42.8646 16.07C42.8646 16 42.9346 15.895 42.9346 15.825C42.9696 15.755 43.2846 14.81 43.3546 14.67C43.3896 14.565 43.8096 13.165 43.9846 12.675C44.3346 11.415 44.6146 10.085 45.1396 8.86V8.825C45.1396 8.685 45.1396 8.545 45.1396 8.44C45.1396 8.405 45.1396 8.335 45.1396 8.265C45.1396 6.83 43.0046 6.305 41.9196 6.305C41.8846 6.305 41.5696 6.305 41.5346 6.305C41.4996 6.34 41.2896 6.445 41.2546 6.445C41.1846 6.48 40.6246 6.69 40.5896 6.69C39.1546 7.46 37.8946 8.65 36.9496 9.91C36.0046 11.275 35.5496 12.29 34.8846 13.865C34.7796 14.11 34.4296 15.37 34.3246 15.65C34.2896 15.685 34.1496 16.315 34.1146 16.525C34.0096 16.945 34.1146 17.47 33.9396 17.82V20.41C34.2896 21.46 34.6746 22.44 36.1446 22.72C36.1796 22.72 36.4596 22.79 36.4946 22.79C36.7746 22.755 37.2646 22.685 37.2646 22.685C37.8596 22.58 38.6296 22.02 39.3296 21.18C39.6446 20.795 39.9596 20.375 40.2396 20.06C40.7996 19.43 41.1846 18.73 41.4296 18.31ZM36.3896 19.99C37.2996 16.245 38.3496 11.905 41.3946 9.315C42.0596 8.72 42.8646 8.23 43.8096 8.23C43.8796 8.23 44.1246 8.23 44.1246 8.23L44.1946 8.37C43.8796 9.315 43.7046 10.26 43.3896 11.205C42.8646 12.605 42.5496 14.355 41.8846 15.685C41.2896 16.84 40.4846 17.89 39.8196 18.94C39.6096 19.255 39.2946 19.535 39.1546 19.885C38.9796 20.06 38.0696 20.97 37.8946 21.145C37.3346 21.635 37.0196 21.67 36.2496 21.67C36.2496 21.495 36.3196 20.62 36.3196 20.41C36.3196 20.375 36.3546 20.025 36.3896 19.99ZM34.7796 20.095C34.7796 19.885 35.2346 19.675 35.4446 19.675C35.4446 20.095 35.3046 20.83 35.2696 21.145C34.9896 20.935 34.7796 20.48 34.7796 20.095ZM34.7446 19.045C34.7446 18.975 34.7446 18.94 34.7446 18.94C34.7446 18.8 34.7796 18.135 34.8146 17.96C34.8146 17.89 35.7246 17.505 35.8996 17.4H35.9346C36.0046 17.4 36.0396 17.47 36.0396 17.505C36.0396 17.505 36.0396 17.505 36.0396 17.54C36.0396 18.135 35.6196 19.15 34.8846 19.15C34.7796 19.15 34.7446 19.115 34.7446 19.045ZM34.9546 16.385C34.9546 15.685 36.1796 15.3 36.6346 15.3H36.6696C36.4946 16.245 36.5646 16.14 35.7596 16.595C35.6896 16.63 35.3046 16.84 35.2696 16.875C35.2696 16.875 35.2346 16.91 35.2346 16.945C35.1996 16.945 35.0946 17.015 35.0946 17.015H35.0596H34.9896C34.8846 16.91 34.9546 16.56 34.9546 16.385ZM35.4096 14.74C35.4446 13.795 36.8096 13.41 37.5096 13.41C37.5096 13.62 37.4396 13.585 37.3346 13.76C37.2996 13.865 37.1246 14.25 37.0896 14.355C36.8796 14.635 35.8996 14.845 35.5496 14.845L35.4096 14.74ZM38.1396 11.905C38.1396 11.905 38.2096 11.905 38.2446 11.905C38.0696 12.36 38.0696 12.64 37.5796 12.78C37.4046 12.78 36.7746 12.92 36.6696 12.955C36.6346 12.955 36.5296 13.06 36.5296 13.06C36.4946 13.06 36.3546 13.06 36.3546 13.06C36.3546 12.15 37.3346 12.045 38.0346 11.905C38.0346 11.905 38.1046 11.905 38.1396 11.905ZM39.5396 9.805C39.5396 9.805 39.5396 9.84 39.5396 9.91C39.3646 10.12 39.2946 10.4 39.0496 10.61C38.7346 10.925 37.5796 11.485 37.1946 11.485V11.38C37.1946 11.38 37.4396 10.925 37.5796 10.75C38.2096 9.77 38.3846 9.805 39.5396 9.805ZM42.0596 7.18C42.1996 7.18 42.6196 7.25 42.7596 7.32C42.6196 7.565 42.3746 7.565 42.1646 7.705C41.9196 7.775 41.0796 8.37 40.9046 8.51C40.7296 8.825 39.3996 9.07 39.0146 9.07V9C39.0146 8.965 39.5046 8.405 39.7146 8.23C40.4146 7.705 41.2196 7.285 42.0596 7.18ZM7.63 62.985C7.665 62.88 10.43 57.525 10.675 56.93C11.095 56.125 11.76 54.445 12.25 53.64C12.53 53.08 12.81 52.555 12.985 51.89C13.16 51.575 13.51 50.665 13.825 50.42C14 50.105 14.735 48.81 14.875 48.46C14.875 48.425 15.015 48.075 15.015 48.075C15.33 47.34 16.065 46.395 16.17 45.625C16.275 45.45 16.695 44.575 16.835 44.4C16.835 44.295 17.255 43.315 17.255 43.175C17.465 42.79 17.92 42.265 17.885 41.81C17.85 41.495 17.745 41.005 17.43 41.04C17.325 41.04 17.22 41.075 17.115 41.215L16.695 42.405C16.695 42.405 16.66 42.44 16.66 42.51C16.345 43.105 16.03 43.77 15.715 44.435C15.645 44.61 15.365 45.415 15.26 45.59C14.945 45.87 14.91 46.5 14.735 46.85C14.14 47.865 13.545 48.845 13.02 49.895C12.565 50.735 12.215 51.61 11.795 52.52C11.55 53.045 11.13 53.955 10.92 54.445C10.605 55.145 10.22 56.055 9.835 56.72C9.485 57.42 8.925 58.12 8.575 58.89C8.54 58.995 8.435 59.205 8.4 59.24C8.295 59.415 7.7 60.5 7.595 60.64C7.595 59.345 7.7 58.225 7.805 57.035C7.84 56.37 8.12 53.395 8.085 53.255V53.22L8.33 47.025C8.435 46.78 8.435 46.22 8.435 45.94C8.47 44.785 8.645 43.595 8.54 42.475C8.54 42.37 8.435 42.125 8.435 42.09C7.875 41.46 6.3 41.915 5.565 41.88C5.355 41.845 5.04 41.635 4.83 41.635C3.955 41.74 4.305 42.65 4.2 43.14C4.095 43.7 3.955 44.365 3.675 44.785C3.29 45.38 2.66 45.66 1.995 45.905C1.33 45.975 0.77 45.485 0.56 45.52C0.245 45.52 0.035 45.765 0.07 46.08C0.07 46.15 0.14 46.29 0.14 46.325C0.56 46.78 1.33 47.025 1.995 46.955C2.905 46.85 3.57 46.255 4.235 45.66C4.235 45.66 4.34 45.59 4.375 45.59V45.695C4.375 45.73 4.375 45.765 4.375 45.765C4.375 46.01 4.41 47.55 4.445 47.76C4.515 48.39 4.585 50.63 4.76 52.065C5.075 53.5 5.145 55.845 5.285 57.315C5.355 58.26 5.425 59.135 5.495 60.08C5.53 60.395 5.565 61.025 5.67 61.375C5.705 61.585 5.705 62.6 5.67 62.845C5.67 62.88 5.705 63.16 5.705 63.3C5.845 64.105 7.315 64.035 7.63 62.985ZM6.895 56.895C6.895 56.895 6.93 57.07 6.93 57.14C6.965 57.455 6.615 60.815 6.545 60.99L6.335 57.35C6.335 57.28 6.86 56.895 6.895 56.895ZM6.02 53.99C5.985 53.78 6.3 53.675 6.37 53.535C6.475 53.43 7.07 52.975 7.105 52.835C7.105 52.87 7.105 52.94 7.14 52.975C7.35 54.725 7.105 55.775 6.3 56.195C6.125 55.81 6.055 54.41 6.02 53.99ZM5.775 51.54C5.775 51.4 7.245 49.825 7.245 49.825C7.28 50.245 7.35 50.91 7.21 51.365C7.175 51.435 6.965 51.575 6.895 51.75C6.65 52.135 6.265 52.415 5.915 52.8C5.81 52.625 5.81 51.785 5.775 51.575V51.54ZM6.265 47.83C6.37 47.62 6.58 47.515 6.58 47.305L7.42 46.43H7.525C7.63 47.62 7.525 48.46 6.65 49.3C6.37 49.58 5.6 50.315 5.565 50.315H5.425C5.39 50.14 5.39 49.37 5.425 49.23C5.425 49.16 5.46 48.845 5.53 48.74L6.265 47.83ZM5.18 46.255C5.18 46.255 5.18 46.15 5.25 46.115C5.425 45.415 5.565 45.38 5.95 44.855C6.37 44.225 6.685 43.63 7.21 43H7.245C7.385 43 7.665 43.035 7.665 43.21C7.665 43.245 7.7 43.525 7.7 43.56C7.735 44.015 7.735 44.645 7.56 44.995C7.42 45.345 7 45.59 6.825 45.835C6.685 46.01 5.74 47.06 5.6 47.165C5.565 47.27 5.425 47.375 5.285 47.41L5.18 46.255ZM6.16 43.035C6.16 43.07 6.16 43.175 6.125 43.21C6.125 43.21 5.845 43.63 5.705 43.805C5.67 43.805 5.6 43.875 5.6 43.875C5.565 43.98 5.25 44.26 5.25 44.26H5.11C5.11 44.12 5.215 43 5.285 43L5.95 42.93C5.985 42.93 6.16 43.035 6.16 43.035ZM24.9944 63.405C25.7294 64.035 25.9744 64.07 26.8494 64.035C27.3044 64.035 27.5844 63.86 27.8994 63.685C29.1944 62.88 29.9644 61.69 30.6994 60.395C30.7344 60.465 31.6444 58.47 31.8544 57.84C31.9244 57.385 31.1894 57.105 31.1194 57.42C30.7694 58.645 29.4394 61.2 28.9494 61.48C28.8094 61.865 28.2144 62.355 27.9344 62.565C27.6544 62.81 27.3394 62.985 26.8844 63.02C26.1844 63.02 25.7294 62.81 25.5894 62.04V62.005C25.4844 61.83 25.4494 60.465 25.5194 60.36C25.6594 58.085 26.6044 56.02 27.0594 53.85C27.1644 53.08 27.8644 51.435 27.9344 50.665C28.0044 50.42 28.2494 49.86 28.1794 49.615C28.1444 49.545 28.1444 49.475 27.9694 49.405C27.8994 49.44 27.5144 49.44 27.4444 49.405H27.3744C27.1644 49.545 26.9894 50.63 26.7794 51.015C26.7094 51.575 26.3944 52.275 26.2894 52.87C26.1844 53.43 25.4494 55.81 25.1694 56.37C24.6094 57.56 24.6444 57.665 24.1194 58.715C24.1194 58.715 24.0494 58.785 24.0494 58.82L23.3144 59.975C23.1744 60.115 22.9294 60.29 22.8594 60.57C22.2294 61.235 20.7944 62.81 19.6394 62.845C19.2894 62.845 19.1494 62.215 19.1144 61.935C18.7994 59.905 19.2894 57.735 19.6394 55.81C19.7094 55.705 19.8144 55.11 19.8844 55.005C19.9194 54.795 20.8994 51.68 21.0394 51.225C21.2144 50.525 21.3194 50.63 21.4594 49.79C21.6344 48.81 21.3194 48.635 20.7244 48.705C20.2344 48.775 19.5694 48.74 19.1144 48.74C17.9244 48.635 17.9944 49.125 17.9244 49.265C17.6094 50.14 17.6444 49.93 17.4344 50.875C17.0844 52.31 16.3144 55.18 16.1744 56.72C16.0344 57.35 16.0344 57.945 15.9994 58.47C15.9294 59.52 15.7544 60.64 15.9294 61.725C16.1744 63.475 17.2244 64 18.8694 64C21.0744 63.965 23.3844 61.69 24.6094 60.01H24.6794C24.6444 60.43 24.4694 61.55 24.6794 62.53C24.7144 62.775 24.8544 63.195 24.9944 63.405ZM17.5744 62.74C17.5394 62.6 17.8894 62.39 17.9594 62.32L18.0994 62.915C18.0294 62.915 17.6094 62.95 17.5744 62.74ZM16.8394 61.515C16.8394 61.48 16.8044 61.165 16.7694 61.06C16.7694 60.745 17.1894 60.64 17.4344 60.535C17.5044 60.465 17.9594 60.115 18.0644 60.08C18.0994 60.535 18.0294 60.85 17.9594 61.305C17.9944 61.34 17.9594 61.515 17.9244 61.515C17.7844 61.76 17.2944 62.04 17.0844 62.215C17.0844 62.215 17.0844 62.215 17.0144 62.215C16.8744 62.005 16.8744 61.725 16.8394 61.515ZM16.8744 59.765L16.9094 58.54C16.9094 58.33 17.1894 58.12 17.2594 58.015C17.3994 57.875 18.2044 57.49 18.3444 57.315V57.42C18.4144 57.91 18.3094 58.925 18.0294 59.1C17.8894 59.24 16.9794 59.94 16.8744 59.94V59.765ZM18.9044 54.655C18.9394 54.655 19.0444 54.62 19.0444 54.62C19.0794 54.935 18.7644 55.985 18.5894 56.23C18.1344 56.545 17.7144 56.965 17.1544 57.175H17.0844C16.9794 56.72 17.1894 56.195 17.3644 55.775C17.3994 55.74 18.8694 54.655 18.9044 54.655ZM20.0944 51.47C20.1294 51.645 19.7444 52.625 19.6744 52.835C19.6394 52.905 19.5344 53.185 19.5344 53.185C19.4994 53.185 19.2544 53.325 19.2194 53.325C18.6244 53.605 18.0994 54.025 17.5044 54.305L17.6444 53.85C17.8194 52.555 19.0094 52.24 19.6044 51.785C19.7444 51.645 19.8844 51.47 20.0944 51.47ZM18.5894 49.825C19.1144 49.79 19.8494 49.72 20.3744 49.72C20.4094 50 20.1294 50.175 19.9894 50.315C19.8844 50.35 18.9394 51.015 18.6244 51.225C18.5544 51.26 18.3444 51.365 18.3444 51.365C18.3444 51.4 18.2744 51.4 18.2744 51.4C18.2044 50.91 18.4144 50.28 18.5894 49.825Z" fill="#684A92"/>
</svg>
