<svg width="245" height="214" viewBox="0 0 245 214" fill="none" xmlns="http://www.w3.org/2000/svg">
<g clip-path="url(#clip0)">
<path d="M164.47 58.14C164.47 58.14 165.8 58.21 166.36 58.21C166.64 58.21 167.97 58.21 168.25 58.21C168.6 58.14 170.21 57.65 170.56 57.58C170.77 57.51 171.54 57.37 171.68 57.37C172.31 57.23 173.43 56.74 174.13 56.67C177.7 53.8 179.1 52.12 181.06 47.78C183.16 43.09 183.65 38.26 183.86 33.29C183.93 32.8 183.93 31.54 183.93 31.05C183.79 29.72 183.93 28.46 183.65 27.13C183.58 26.78 183.02 24.26 183.02 23.98C182.74 22.86 181.62 21.18 181.69 20.34C181.69 20.27 181.69 20.27 181.69 20.27C183.3 19.57 184.77 18.24 186.52 17.75C186.73 17.47 187.43 16 187.43 15.79C187.43 15.51 186.94 15.51 186.8 15.51C185.26 15.44 183.86 17.33 182.39 17.75C182.11 17.82 180.85 18.24 180.71 18.31C179.66 17.68 178.89 16.14 177.77 15.37C175.32 13.48 172.94 12.43 169.72 12.43C168.46 12.36 167.27 12.85 166.01 12.85C166.08 12.15 166.01 12.08 165.24 12.08C164.05 12.08 162.72 12.08 161.53 12.15C160.41 12.15 158.87 12.64 158.8 13.97C158.8 14.95 158.94 16.07 158.87 17.12C158.66 20.55 157.89 23.98 157.82 27.41C157.47 28.11 157.54 28.74 157.4 29.44C157.12 30.98 156.84 31.68 156.7 33.15C156.7 33.36 156.63 34.41 156.63 34.55C156.21 37.35 155.65 40.01 155.44 42.81C155.09 45.47 155.3 49.32 154.39 51.84C154.32 51.84 154.18 51.84 154.11 51.84C154.11 51.35 150.26 50.37 149.07 53.8C148.72 56.11 150.75 57.65 151.66 57.51C151.8 57.51 152.64 57.37 152.64 57.37C153.76 57.09 155.37 56.25 155.65 55.34C156.28 55.76 159.22 57.58 164.47 58.14ZM156.35 53.52C156.42 53.17 156.77 52.26 156.91 52.05L159.15 45.68C160.06 43.79 159.71 40.85 160.69 38.96C161.32 35.32 161.95 32.66 162.51 29.09C163.7 26.22 163.63 22.3 164.82 19.36H164.96C165.1 19.99 167.62 22.37 172.38 21.81H175.88C176.44 21.53 179.38 20.83 179.59 20.83C180.36 20.9 181.13 25.1 181.27 26.08C181.97 29.09 182.04 31.82 181.97 34.55C181.9 36.93 181.62 39.45 181.06 41.76C180.78 42.6 180.5 43.51 180.29 44.35C179.1 48.06 177.49 51.49 174.41 54.08C174.06 54.29 173.85 54.43 173.57 54.71C172.45 55.27 170.91 55.9 169.65 56.11C167.48 56.88 162.3 57.16 156.35 53.52ZM150.82 54.71C150.82 53.8 151.17 53.1 152.01 53.1C152.29 53.1 153.34 52.89 153.97 53.94C153.97 54.71 153.2 55.55 152.36 55.55C151.73 55.55 150.75 55.55 150.82 54.71ZM157.05 43.86C157.12 43.65 158.1 42.67 158.45 42.67C157.96 44.49 157.4 45.61 156.98 47.43C156.91 47.57 156.49 49.11 156.28 49.25C156.28 49.11 156.28 48.76 156.28 48.69C156.49 47.29 156.98 45.54 157.05 43.86ZM159.85 35.32C159.78 36.51 159.29 38.68 159.01 39.8C158.66 40.15 157.68 41.13 157.33 41.34C157.33 41.27 157.33 41.13 157.33 41.13C157.61 39.66 157.75 38.19 157.82 37.28C157.82 37.14 157.96 36.58 157.96 36.58L159.85 35.32ZM159.01 30.07C159.22 29.86 161.67 27.97 160.97 28.46C160.9 29.3 160.83 29.72 160.69 30.49C160.62 30.63 160.41 32.1 160.41 32.1C160.69 31.54 159.57 34.55 159.29 34.13C159.08 34.41 158.38 34.97 158.38 34.97H158.24C158.24 34.9 158.31 34.34 158.31 34.27C158.52 33.08 158.66 31.19 159.01 30.07ZM163.77 16.56C163.77 16.7 163.91 16.84 163.91 16.84C163.49 17.54 163.21 19.99 162.58 20.76C162.16 21.04 160.62 22.58 160.62 22.58H160.27L160.41 19.43C160.41 19.01 163.35 16.7 163.77 16.56ZM165.94 16.49C166.08 14.88 167.13 14.32 168.67 14.32C169.93 14.39 171.19 14.39 172.38 14.74C172.73 14.81 173.99 15.37 174.2 15.44C174.97 15.79 177.98 17.75 177.91 18.66C177.91 18.87 177.98 19.15 177.77 19.22C176.79 19.64 172.45 20.13 171.47 20.13C169.3 20.13 165.8 19.29 165.94 16.49ZM160.83 14.6C162.09 13.76 163.56 13.34 164.12 13.97C163.84 14.32 161.18 16.56 160.69 16.56L160.83 14.6ZM162.44 22.72C162.37 23.91 161.81 25.45 161.53 26.57C161.18 26.92 159.85 27.69 159.5 27.9C159.5 27.83 159.5 27.69 159.5 27.69C159.57 26.5 159.71 26.08 159.99 24.89C159.99 24.75 160.13 24.19 160.13 24.19L162.44 22.72ZM187.182 54.57C187.392 54.78 188.162 55.48 188.302 55.69C188.372 55.76 188.722 55.76 188.722 55.83C189.842 56.88 191.942 57.79 193.342 57.79C193.482 57.79 193.552 57.79 193.552 57.79C193.622 57.79 194.252 57.93 194.322 57.93C194.462 57.93 196.142 57.93 196.282 57.93C196.352 57.93 196.912 57.86 197.122 57.86L197.402 57.65C197.472 57.65 197.962 57.37 198.032 57.44C202.582 55.34 204.962 52.82 207.202 48.55C207.832 47.57 208.252 46.24 208.532 45.33C208.672 44.91 208.042 43.02 207.132 44.77C206.852 45.26 206.712 45.82 206.502 46.38C205.872 48.27 204.752 49.18 203.142 51.42C201.252 53.38 198.732 55.9 195.792 55.9C195.442 55.9 193.972 55.76 193.622 55.62C193.552 55.62 193.272 55.27 193.132 55.27C193.062 55.13 192.712 55.06 192.642 55.06C191.242 53.66 191.102 51.77 191.102 49.81C191.102 48.62 191.102 47.71 191.172 46.45C191.242 46.03 192.082 40.22 192.502 39.94C193.132 39.59 193.762 39.73 194.392 39.52C196.002 38.96 197.262 38.26 198.662 37.21C199.152 36.65 199.642 36.72 200.062 35.95C200.272 35.74 201.042 34.97 201.182 34.76C202.232 33.15 203.422 31.47 203.422 29.37C203.422 27.13 202.932 24.89 200.062 24.89C199.572 24.89 198.662 24.96 198.172 25.24C198.102 25.31 197.682 25.52 197.682 25.52C197.542 25.59 196.912 25.73 196.842 25.73C196.772 25.73 196.002 26.01 195.932 26.15C195.302 26.43 194.812 27.27 194.602 27.27L192.432 29.58C192.432 29.58 192.362 29.72 192.222 29.79L192.152 29.93C191.102 31.19 190.402 32.31 189.422 33.57C189.002 33.99 187.952 35.88 187.672 36.65C187.602 36.93 187.042 38.26 186.972 38.54C186.972 38.54 186.972 38.61 186.972 38.75C186.342 40.71 185.642 44.91 185.642 47.08C185.642 48.9 185.852 51.42 186.482 53.03C186.762 53.52 187.112 54.01 187.182 54.57ZM187.882 51.49C187.882 51.14 188.862 50.44 189.282 50.44C189.282 51.35 189.702 53.87 189.702 54.78C188.582 54.64 187.882 51.63 187.882 51.49ZM187.322 47.29L189.352 45.96V46.1C189.352 46.24 189.352 46.31 189.352 46.38C189.352 46.73 189.002 48.27 189.002 48.76C188.932 49.11 188.022 50.09 187.532 50.09L187.322 48.83V47.29ZM190.822 37.49C190.892 37.7 190.472 39.17 190.472 39.45V39.52C190.472 39.59 190.332 40.15 190.332 40.22C190.262 40.36 190.192 40.57 190.192 40.57L188.162 42.04H188.022C188.022 41.06 188.442 39.59 188.932 38.89C189.352 38.26 190.122 37.98 190.822 37.49ZM189.842 36.02C190.682 34.48 191.592 32.8 192.922 31.75C192.922 31.82 192.922 31.82 192.922 31.82C192.922 31.82 192.852 32.1 192.712 32.1C192.712 32.38 191.592 35.11 191.522 35.39C191.312 35.81 190.192 36.65 189.772 37V36.93C189.772 36.58 189.982 36.3 189.842 36.02ZM194.882 31.4C195.232 30.77 196.352 29.02 196.702 28.53C197.332 27.48 198.662 27.06 199.712 27.06C201.462 27.06 201.322 28.11 201.322 29.44C201.322 30.98 200.972 32.03 200.062 33.29C199.992 33.5 198.942 34.34 198.732 34.62C198.032 35.67 194.392 37.63 193.062 37.63H192.852C193.342 36.3 193.692 35.04 194.042 33.78C194.252 33.15 194.672 31.96 194.882 31.4ZM187.602 44.07C187.532 43.86 189.212 43.09 189.632 42.53V42.67C189.702 43.37 189.562 43.58 189.562 44.21C189.002 44.91 188.372 45.12 187.672 45.68C187.392 45.26 187.602 44.63 187.602 44.07ZM194.172 78.58C195.432 80.47 197.322 81.87 199.562 81.8C205.932 81.8 206.842 72.21 207.262 67.59C207.542 65.07 207.472 62.27 207.612 59.96C207.822 59.19 207.472 58 208.032 57.51C209.852 56.04 211.112 54.92 212.792 53.38C212.932 53.38 213.142 53.17 213.212 53.1L216.222 49.95C216.572 49.6 216.922 49.04 217.132 48.55C217.552 47.71 218.742 46.03 218.952 45.05C219.232 44.14 217.762 43.16 217.202 44.77C216.642 46.38 214.682 48.97 214.332 49.46C213.422 50.37 209.082 54.92 207.892 54.92C207.892 54.01 207.962 52.61 208.102 51.7C208.452 48.9 208.382 45.89 209.012 43.16C209.362 41.76 209.712 36.16 209.642 34.62C209.572 34.2 209.152 33.64 208.662 33.64C207.612 33.71 207.612 34.9 207.402 35.74C207.472 35.88 207.262 39.87 207.262 40.01C207.192 40.57 207.122 42.74 206.982 43.37L206.072 51.07C206.142 51.28 206.072 51.91 206.072 51.91C206.142 53.59 205.512 55.06 205.512 56.67C205.022 57.09 204.462 57.37 204.042 57.72C202.782 58.56 201.732 59.61 200.542 60.66C200.332 60.87 199.422 61.71 199.142 61.85C197.602 62.97 196.622 64.3 195.712 65.84C194.662 67.31 194.382 68.43 193.822 70.04C193.682 70.39 193.542 70.46 193.612 70.81C193.612 71.16 193.612 71.16 193.612 71.3C193.682 71.44 193.682 71.44 193.682 71.44C193.682 71.51 193.472 71.86 193.472 71.86C193.472 71.93 193.402 72.42 193.402 72.42C193.402 73.19 193.332 73.96 193.402 74.73C193.402 74.94 193.402 75.85 193.472 75.99C193.542 75.99 193.612 76.34 193.612 76.34C193.542 77.11 193.682 77.88 194.172 78.58ZM196.412 78.44C196.412 78.3 196.482 78.16 196.622 78.16C196.762 77.95 197.742 77.25 197.952 77.11H198.022H198.092L198.232 77.18L198.302 79.7C197.742 79.42 196.832 78.86 196.412 78.44ZM200.542 79.42C200.542 79.35 200.472 78.79 200.472 78.72C200.472 78.51 200.402 78.02 200.402 78.02C200.472 76.9 200.402 74.38 200.332 74.24C200.332 73.96 200.962 70.04 201.172 68.71C201.312 67.45 204.322 60.38 205.722 60.03C205.512 65.35 205.232 67.1 205.022 68.57C204.882 70.88 204.392 74.03 203.552 76.2C203.272 77.04 201.592 79.49 200.682 79.49L200.542 79.42ZM195.222 74.38C196.342 73.4 198.232 72.42 198.372 72.42L198.162 74.31V74.38C198.302 75.22 196.622 76.83 195.992 76.9C195.502 76.83 195.292 74.66 195.222 74.38ZM195.852 70.18C195.572 69.97 198.372 68.36 199.212 67.94C199.352 67.94 198.862 69.62 198.862 69.69C198.862 70.6 196.132 71.93 195.572 72.7L195.852 70.18ZM201.312 62.9C201.312 63.11 200.752 64.37 200.542 64.72C200.332 65 199.702 65.98 199.632 66.12C198.792 66.26 198.162 67.17 197.322 67.31V67.24C196.622 65.77 200.402 62.83 201.312 62.83V62.9ZM208.662 28.95C208.732 29.02 209.362 29.23 209.502 29.23C209.502 29.23 209.712 29.3 209.852 29.3C211.812 29.3 212.932 27.48 212.862 25.73C212.792 24.54 211.672 23.14 210.412 23.21C209.222 23.21 208.592 23.84 207.962 24.61C207.752 25.03 207.262 25.24 207.122 25.8C206.982 26.22 207.122 26.57 206.982 27.13C207.052 28.6 207.542 28.81 208.662 28.95ZM209.082 26.43C209.012 26.22 209.642 25.31 209.992 25.31C210.272 25.31 210.972 25.66 210.972 25.94C211.042 26.36 210.482 27.34 209.992 27.34H209.852C209.292 27.48 208.662 26.71 209.082 26.43ZM231.859 48.62C231.789 50.3 231.999 50.86 232.139 51.91C232.279 52.68 232.559 53.38 232.769 54.08C233.049 54.92 233.329 55.62 233.959 56.39C234.309 56.74 234.379 56.88 234.799 57.16C235.919 58.07 238.929 58 240.049 57.02C241.379 56.25 242.639 54.92 243.829 52.75C244.039 52.33 244.389 51.7 244.599 51.21C245.019 50.23 245.509 49.18 245.859 48.13C246.209 46.87 246.629 46.03 246.769 44.84C246.769 44.28 245.369 44.07 245.159 44.7C245.019 45.61 245.089 45.05 244.949 45.75C244.809 46.24 244.389 47.71 244.249 48.13C243.969 48.97 243.409 49.6 243.059 50.37C242.709 51.07 242.499 51.7 242.079 52.47C240.959 54.29 239.699 55.76 237.179 55.76C235.009 55.76 234.309 52.82 233.959 51.14C233.959 50.79 233.959 49.53 233.959 49.25C233.959 48.83 233.959 47.43 233.959 47.36C234.029 46.94 234.659 44.56 234.729 44.14C234.729 44 234.869 43.79 234.869 43.65C234.939 43.51 235.569 41.62 235.709 41.34C235.779 41.13 236.619 38.33 236.969 37.35C237.669 34.83 238.229 32.17 239.279 29.72V29.65C239.279 29.37 239.279 29.09 239.279 28.88C239.279 28.81 239.279 28.67 239.279 28.53C239.279 25.66 235.009 24.61 232.839 24.61C232.769 24.61 232.139 24.61 232.069 24.61C231.999 24.68 231.579 24.89 231.509 24.89C231.369 24.96 230.249 25.38 230.179 25.38C227.309 26.92 224.789 29.3 222.899 31.82C221.009 34.55 220.099 36.58 218.769 39.73C218.559 40.22 217.859 42.74 217.649 43.3C217.579 43.37 217.299 44.63 217.229 45.05C217.019 45.89 217.229 46.94 216.879 47.64V52.82C217.579 54.92 218.349 56.88 221.289 57.44C221.359 57.44 221.919 57.58 221.989 57.58C222.549 57.51 223.529 57.37 223.529 57.37C224.719 57.16 226.259 56.04 227.659 54.36C228.289 53.59 228.919 52.75 229.479 52.12C230.599 50.86 231.369 49.46 231.859 48.62ZM221.779 51.98C223.599 44.49 225.699 35.81 231.789 30.63C233.119 29.44 234.729 28.46 236.619 28.46C236.759 28.46 237.249 28.46 237.249 28.46L237.389 28.74C236.759 30.63 236.409 32.52 235.779 34.41C234.729 37.21 234.099 40.71 232.769 43.37C231.579 45.68 229.969 47.78 228.639 49.88C228.219 50.51 227.589 51.07 227.309 51.77C226.959 52.12 225.139 53.94 224.789 54.29C223.669 55.27 223.039 55.34 221.499 55.34C221.499 54.99 221.639 53.24 221.639 52.82C221.639 52.75 221.709 52.05 221.779 51.98ZM218.559 52.19C218.559 51.77 219.469 51.35 219.889 51.35C219.889 52.19 219.609 53.66 219.539 54.29C218.979 53.87 218.559 52.96 218.559 52.19ZM218.489 50.09C218.489 49.95 218.489 49.88 218.489 49.88C218.489 49.6 218.559 48.27 218.629 47.92C218.629 47.78 220.449 47.01 220.799 46.8H220.869C221.009 46.8 221.079 46.94 221.079 47.01C221.079 47.01 221.079 47.01 221.079 47.08C221.079 48.27 220.239 50.3 218.769 50.3C218.559 50.3 218.489 50.23 218.489 50.09ZM218.909 44.77C218.909 43.37 221.359 42.6 222.269 42.6H222.339C221.989 44.49 222.129 44.28 220.519 45.19C220.379 45.26 219.609 45.68 219.539 45.75C219.539 45.75 219.469 45.82 219.469 45.89C219.399 45.89 219.189 46.03 219.189 46.03H219.119H218.979C218.769 45.82 218.909 45.12 218.909 44.77ZM219.819 41.48C219.889 39.59 222.619 38.82 224.019 38.82C224.019 39.24 223.879 39.17 223.669 39.52C223.599 39.73 223.249 40.5 223.179 40.71C222.759 41.27 220.799 41.69 220.099 41.69L219.819 41.48ZM225.279 35.81C225.279 35.81 225.419 35.81 225.489 35.81C225.139 36.72 225.139 37.28 224.159 37.56C223.809 37.56 222.549 37.84 222.339 37.91C222.269 37.91 222.059 38.12 222.059 38.12C221.989 38.12 221.709 38.12 221.709 38.12C221.709 36.3 223.669 36.09 225.069 35.81C225.069 35.81 225.209 35.81 225.279 35.81ZM228.079 31.61C228.079 31.61 228.079 31.68 228.079 31.82C227.729 32.24 227.589 32.8 227.099 33.22C226.469 33.85 224.159 34.97 223.389 34.97V34.76C223.389 34.76 223.879 33.85 224.159 33.5C225.419 31.54 225.769 31.61 228.079 31.61ZM233.119 26.36C233.399 26.36 234.239 26.5 234.519 26.64C234.239 27.13 233.749 27.13 233.329 27.41C232.839 27.55 231.159 28.74 230.809 29.02C230.459 29.65 227.799 30.14 227.029 30.14V30C227.029 29.93 228.009 28.81 228.429 28.46C229.829 27.41 231.439 26.57 233.119 26.36ZM164.26 138.97C164.33 138.76 169.86 128.05 170.35 126.86C171.19 125.25 172.52 121.89 173.5 120.28C174.06 119.16 174.62 118.11 174.97 116.78C175.32 116.15 176.02 114.33 176.65 113.84C177 113.21 178.47 110.62 178.75 109.92C178.75 109.85 179.03 109.15 179.03 109.15C179.66 107.68 181.13 105.79 181.34 104.25C181.55 103.9 182.39 102.15 182.67 101.8C182.67 101.59 183.51 99.63 183.51 99.35C183.93 98.58 184.84 97.53 184.77 96.62C184.7 95.99 184.49 95.01 183.86 95.08C183.65 95.08 183.44 95.15 183.23 95.43L182.39 97.81C182.39 97.81 182.32 97.88 182.32 98.02C181.69 99.21 181.06 100.54 180.43 101.87C180.29 102.22 179.73 103.83 179.52 104.18C178.89 104.74 178.82 106 178.47 106.7C177.28 108.73 176.09 110.69 175.04 112.79C174.13 114.47 173.43 116.22 172.59 118.04C172.1 119.09 171.26 120.91 170.84 121.89C170.21 123.29 169.44 125.11 168.67 126.44C167.97 127.84 166.85 129.24 166.15 130.78C166.08 130.99 165.87 131.41 165.8 131.48C165.59 131.83 164.4 134 164.19 134.28C164.19 131.69 164.4 129.45 164.61 127.07C164.68 125.74 165.24 119.79 165.17 119.51V119.44L165.66 107.05C165.87 106.56 165.87 105.44 165.87 104.88C165.94 102.57 166.29 100.19 166.08 97.95C166.08 97.74 165.87 97.25 165.87 97.18C164.75 95.92 161.6 96.83 160.13 96.76C159.71 96.69 159.08 96.27 158.66 96.27C156.91 96.48 157.61 98.3 157.4 99.28C157.19 100.4 156.91 101.73 156.35 102.57C155.58 103.76 154.32 104.32 152.99 104.81C151.66 104.95 150.54 103.97 150.12 104.04C149.49 104.04 149.07 104.53 149.14 105.16C149.14 105.3 149.28 105.58 149.28 105.65C150.12 106.56 151.66 107.05 152.99 106.91C154.81 106.7 156.14 105.51 157.47 104.32C157.47 104.32 157.68 104.18 157.75 104.18V104.39C157.75 104.46 157.75 104.53 157.75 104.53C157.75 105.02 157.82 108.1 157.89 108.52C158.03 109.78 158.17 114.26 158.52 117.13C159.15 120 159.29 124.69 159.57 127.63C159.71 129.52 159.85 131.27 159.99 133.16C160.06 133.79 160.13 135.05 160.34 135.75C160.41 136.17 160.41 138.2 160.34 138.69C160.34 138.76 160.41 139.32 160.41 139.6C160.69 141.21 163.63 141.07 164.26 138.97ZM162.79 126.79C162.79 126.79 162.86 127.14 162.86 127.28C162.93 127.91 162.23 134.63 162.09 134.98L161.67 127.7C161.67 127.56 162.72 126.79 162.79 126.79ZM161.04 120.98C160.97 120.56 161.6 120.35 161.74 120.07C161.95 119.86 163.14 118.95 163.21 118.67C163.21 118.74 163.21 118.88 163.28 118.95C163.7 122.45 163.21 124.55 161.6 125.39C161.25 124.62 161.11 121.82 161.04 120.98ZM160.55 116.08C160.55 115.8 163.49 112.65 163.49 112.65C163.56 113.49 163.7 114.82 163.42 115.73C163.35 115.87 162.93 116.15 162.79 116.5C162.3 117.27 161.53 117.83 160.83 118.6C160.62 118.25 160.62 116.57 160.55 116.15V116.08ZM161.53 108.66C161.74 108.24 162.16 108.03 162.16 107.61L163.84 105.86H164.05C164.26 108.24 164.05 109.92 162.3 111.6C161.74 112.16 160.2 113.63 160.13 113.63H159.85C159.78 113.28 159.78 111.74 159.85 111.46C159.85 111.32 159.92 110.69 160.06 110.48L161.53 108.66ZM159.36 105.51C159.36 105.51 159.36 105.3 159.5 105.23C159.85 103.83 160.13 103.76 160.9 102.71C161.74 101.45 162.37 100.26 163.42 99H163.49C163.77 99 164.33 99.07 164.33 99.42C164.33 99.49 164.4 100.05 164.4 100.12C164.47 101.03 164.47 102.29 164.12 102.99C163.84 103.69 163 104.18 162.65 104.67C162.37 105.02 160.48 107.12 160.2 107.33C160.13 107.54 159.85 107.75 159.57 107.82L159.36 105.51ZM161.32 99.07C161.32 99.14 161.32 99.35 161.25 99.42C161.25 99.42 160.69 100.26 160.41 100.61C160.34 100.61 160.2 100.75 160.2 100.75C160.13 100.96 159.5 101.52 159.5 101.52H159.22C159.22 101.24 159.43 99 159.57 99L160.9 98.86C160.97 98.86 161.32 99.07 161.32 99.07ZM198.989 139.81C200.459 141.07 200.949 141.14 202.699 141.07C203.609 141.07 204.169 140.72 204.799 140.37C207.389 138.76 208.929 136.38 210.399 133.79C210.469 133.93 212.289 129.94 212.709 128.68C212.849 127.77 211.379 127.21 211.239 127.84C210.539 130.29 207.879 135.4 206.899 135.96C206.619 136.73 205.429 137.71 204.869 138.13C204.309 138.62 203.679 138.97 202.769 139.04C201.369 139.04 200.459 138.62 200.179 137.08V137.01C199.969 136.66 199.899 133.93 200.039 133.72C200.319 129.17 202.209 125.04 203.119 120.7C203.329 119.16 204.729 115.87 204.869 114.33C205.009 113.84 205.499 112.72 205.359 112.23C205.289 112.09 205.289 111.95 204.939 111.81C204.799 111.88 204.029 111.88 203.889 111.81H203.749C203.329 112.09 202.979 114.26 202.559 115.03C202.419 116.15 201.789 117.55 201.579 118.74C201.369 119.86 199.899 124.62 199.339 125.74C198.219 128.12 198.289 128.33 197.239 130.43C197.239 130.43 197.099 130.57 197.099 130.64L195.629 132.95C195.349 133.23 194.859 133.58 194.719 134.14C193.459 135.47 190.589 138.62 188.279 138.69C187.579 138.69 187.299 137.43 187.229 136.87C186.599 132.81 187.579 128.47 188.279 124.62C188.419 124.41 188.629 123.22 188.769 123.01C188.839 122.59 190.799 116.36 191.079 115.45C191.429 114.05 191.639 114.26 191.919 112.58C192.269 110.62 191.639 110.27 190.449 110.41C189.469 110.55 188.139 110.48 187.229 110.48C184.849 110.27 184.989 111.25 184.849 111.53C184.219 113.28 184.289 112.86 183.869 114.75C183.169 117.62 181.629 123.36 181.349 126.44C181.069 127.7 181.069 128.89 180.999 129.94C180.859 132.04 180.509 134.28 180.859 136.45C181.349 139.95 183.449 141 186.739 141C191.149 140.93 195.769 136.38 198.219 133.02H198.359C198.289 133.86 197.939 136.1 198.359 138.06C198.429 138.55 198.709 139.39 198.989 139.81ZM184.149 138.48C184.079 138.2 184.779 137.78 184.919 137.64L185.199 138.83C185.059 138.83 184.219 138.9 184.149 138.48ZM182.679 136.03C182.679 135.96 182.609 135.33 182.539 135.12C182.539 134.49 183.379 134.28 183.869 134.07C184.009 133.93 184.919 133.23 185.129 133.16C185.199 134.07 185.059 134.7 184.919 135.61C184.989 135.68 184.919 136.03 184.849 136.03C184.569 136.52 183.589 137.08 183.169 137.43C183.169 137.43 183.169 137.43 183.029 137.43C182.749 137.01 182.749 136.45 182.679 136.03ZM182.749 132.53L182.819 130.08C182.819 129.66 183.379 129.24 183.519 129.03C183.799 128.75 185.409 127.98 185.689 127.63V127.84C185.829 128.82 185.619 130.85 185.059 131.2C184.779 131.48 182.959 132.88 182.749 132.88V132.53ZM186.809 122.31C186.879 122.31 187.089 122.24 187.089 122.24C187.159 122.87 186.529 124.97 186.179 125.46C185.269 126.09 184.429 126.93 183.309 127.35H183.169C182.959 126.44 183.379 125.39 183.729 124.55C183.799 124.48 186.739 122.31 186.809 122.31ZM189.189 115.94C189.259 116.29 188.489 118.25 188.349 118.67C188.279 118.81 188.069 119.37 188.069 119.37C187.999 119.37 187.509 119.65 187.439 119.65C186.249 120.21 185.199 121.05 184.009 121.61L184.289 120.7C184.639 118.11 187.019 117.48 188.209 116.57C188.489 116.29 188.769 115.94 189.189 115.94ZM186.179 112.65C187.229 112.58 188.699 112.44 189.749 112.44C189.819 113 189.259 113.35 188.979 113.63C188.769 113.7 186.879 115.03 186.249 115.45C186.109 115.52 185.689 115.73 185.689 115.73C185.689 115.8 185.549 115.8 185.549 115.8C185.409 114.82 185.829 113.56 186.179 112.65Z" fill="#684A92"/>
<path d="M132.121 58.2531C131.403 57.2736 130.347 56.6319 129.147 56.4467L90.5098 50.4799V17.547C90.5098 15.0405 88.4704 13.0011 85.9639 13.0011H4.54588C2.03941 13.0011 0 15.0405 0 17.547V99.0164C0 101.523 2.03941 103.562 4.54588 103.562H34.8879L31.0627 128.334C30.6839 130.785 32.41 133.143 34.8614 133.521L115.325 145.947C117.721 146.317 120.139 144.562 120.512 142.148L122.592 128.675C122.977 126.186 119.126 125.59 118.742 128.08C118.479 129.777 117.269 142.299 115.92 142.097L35.4561 129.67C35.0706 129.573 34.8895 129.326 34.9134 128.929L38.8307 103.563H43.1903L40.0214 124.081C39.8572 125.145 40.5861 126.14 41.6496 126.304L111.03 137.019C112.009 137.17 113.099 136.387 113.253 135.391L123.987 65.8866C124.151 64.8231 123.422 63.8279 122.358 63.6638L90.5095 58.7451V54.4226L128.552 60.2977C128.938 60.3949 129.119 60.6419 129.095 61.0388L120.259 118.256C119.885 120.677 123.719 121.381 124.109 118.851L132.946 61.6334C133.131 60.4333 132.838 59.233 132.121 58.2531V58.2531ZM3.89647 99.0164V17.547C3.89647 17.1888 4.18793 16.8976 4.54588 16.8976H85.9636C86.3216 16.8976 86.6131 17.1888 86.6131 17.547V99.0164C86.6131 99.3746 86.3216 99.6658 85.9636 99.6658H4.54588C4.18793 99.6658 3.89647 99.3746 3.89647 99.0164ZM119.839 67.2171L109.699 132.871L44.1696 122.75L47.133 103.562H85.9636C88.4701 103.562 90.5095 101.523 90.5095 99.0164V62.6876L119.839 67.2171Z" fill="#684A92"/>
<path d="M80.3564 21.1709H10.1532C9.07724 21.1709 8.20496 22.0429 8.20496 23.1191V32.8577C8.20496 35.3766 12.1014 35.3766 12.1014 32.8577V25.0674H78.4079V91.4991H12.1014V43.2192C12.1014 40.7003 8.20496 40.7003 8.20496 43.2192V93.4473C8.20496 94.5235 9.07724 95.3955 10.1532 95.3955H80.3561C81.4321 95.3955 82.3044 94.5235 82.3044 93.4473V23.1191C82.3046 22.0429 81.4323 21.1709 80.3564 21.1709V21.1709Z" fill="#684A92"/>
<path d="M45.2543 77.6642C45.5086 77.6642 45.7629 77.6146 46.0021 77.5148C46.2209 77.4239 51.4167 75.2414 56.6998 71.1176C63.9021 65.4957 67.7573 58.9437 67.8487 52.1695C67.9443 45.0836 62.5461 38.1814 55.1197 38.1814C51.2338 38.1814 47.6343 40.1159 45.254 43.3144C42.874 40.1159 39.2745 38.1814 35.3884 38.1814C28.3695 38.1814 22.6593 44.4443 22.6593 52.143C22.6593 68.4534 43.6284 77.1584 44.521 77.5208C44.7563 77.6167 45.0054 77.6642 45.2543 77.6642V77.6642ZM26.5561 52.143C26.5561 46.5931 30.5183 42.0779 35.3886 42.0779C38.8524 42.0779 42.014 44.4069 43.4432 48.0114C44.0807 49.6189 46.4279 49.6189 47.0654 48.0114C48.4943 44.4069 51.6559 42.0779 55.1197 42.0779C60.3908 42.0779 64.0195 47.1638 63.9525 52.1168C63.7899 64.1761 48.7798 71.9255 45.2442 73.5838C41.6835 71.953 26.5561 64.3063 26.5561 52.143V52.143Z" fill="#684A92"/>
<path d="M76.92 204.24C75.88 204.24 75.1067 203.933 74.6 203.32C74.0933 202.707 73.84 201.973 73.84 201.12C73.84 200.507 73.9333 199.893 74.12 199.28C74.3067 198.667 74.4933 198.067 74.68 197.48C74.8667 196.867 74.96 196.32 74.96 195.84C74.96 195.387 74.8667 195.08 74.68 194.92C74.52 194.733 74.3067 194.64 74.04 194.64C73.4267 194.64 72.7067 195.107 71.88 196.04C71.08 196.973 70.08 198.333 68.88 200.12C68.4533 200.76 68.0533 201.44 67.68 202.16C67.3067 202.853 66.9733 203.44 66.68 203.92C66.44 203.92 66.12 203.88 65.72 203.8C65.3467 203.72 65.0133 203.6 64.72 203.44C64.4267 203.307 64.28 203.12 64.28 202.88C64.28 202.64 64.4133 202.173 64.68 201.48C64.9467 200.787 65.2533 199.987 65.6 199.08C65.9467 198.147 66.2533 197.24 66.52 196.36C66.7867 195.453 66.92 194.693 66.92 194.08C66.92 193.28 66.64 192.88 66.08 192.88C65.52 192.88 64.84 193.213 64.04 193.88C63.2667 194.547 62.44 195.427 61.56 196.52C60.7067 197.587 59.8933 198.787 59.12 200.12C58.3733 201.427 57.76 202.747 57.28 204.08C56.9867 204.08 56.6267 204.013 56.2 203.88C55.7733 203.773 55.4 203.627 55.08 203.44C54.76 203.28 54.6 203.133 54.6 203C54.6 202.973 54.6933 202.6 54.88 201.88C55.0667 201.133 55.2933 200.213 55.56 199.12C55.8267 198.027 56.1067 196.907 56.4 195.76C56.6933 194.613 56.9467 193.613 57.16 192.76C57.24 192.467 57.5333 192.213 58.04 192C58.5467 191.76 58.9867 191.64 59.36 191.64C59.7333 191.64 60.0533 191.76 60.32 192C60.5867 192.24 60.72 192.56 60.72 192.96C60.72 193.227 60.6667 193.613 60.56 194.12C60.4533 194.627 60.32 195.2 60.16 195.84C60.9067 194.827 61.7067 193.853 62.56 192.92C63.44 191.987 64.3333 191.227 65.24 190.64C66.1733 190.027 67.08 189.72 67.96 189.72C68.9467 189.72 69.6133 190.08 69.96 190.8C70.3067 191.493 70.48 192.253 70.48 193.08C70.48 193.613 70.4133 194.12 70.28 194.6C70.1733 195.053 70.0133 195.613 69.8 196.28C70.5733 195.16 71.44 194.2 72.4 193.4C73.3867 192.573 74.4533 192.16 75.6 192.16C76.64 192.16 77.36 192.48 77.76 193.12C78.16 193.733 78.36 194.413 78.36 195.16C78.36 195.853 78.24 196.587 78 197.36C77.7867 198.107 77.56 198.827 77.32 199.52C77.1067 200.187 77 200.76 77 201.24C77 201.507 77.0667 201.76 77.2 202C77.3333 202.213 77.6 202.32 78 202.32C78.72 202.32 79.4133 201.987 80.08 201.32C80.7467 200.653 81.36 199.84 81.92 198.88C82.5067 197.893 83 196.96 83.4 196.08L84.08 196.92C83.6533 198.013 83.0933 199.133 82.4 200.28C81.7333 201.4 80.9467 202.333 80.04 203.08C79.1333 203.853 78.0933 204.24 76.92 204.24ZM87.0463 204.76C85.3396 204.76 84.0196 204.293 83.0863 203.36C82.1796 202.453 81.7262 201.307 81.7262 199.92C81.7262 198.747 82.0196 197.507 82.6063 196.2C83.2196 194.867 84.0329 193.627 85.0462 192.48C86.0596 191.307 87.1796 190.36 88.4063 189.64C89.6329 188.92 90.8596 188.56 92.0863 188.56C92.7796 188.56 93.4329 188.747 94.0463 189.12C94.6863 189.467 95.0063 190.173 95.0063 191.24C95.0063 192.253 94.7129 193.2 94.1263 194.08C93.5396 194.96 92.7529 195.747 91.7663 196.44C90.7796 197.133 89.6863 197.707 88.4863 198.16C87.3129 198.587 86.1263 198.867 84.9263 199C84.8996 199.107 84.8729 199.227 84.8463 199.36C84.8463 199.467 84.8463 199.653 84.8463 199.92C84.8463 200.053 84.8596 200.293 84.8863 200.64C84.9396 200.96 85.0596 201.307 85.2463 201.68C85.4329 202.053 85.7396 202.373 86.1663 202.64C86.5929 202.907 87.1796 203.04 87.9263 203.04C89.0463 203.04 90.1663 202.733 91.2863 202.12C92.4329 201.48 93.4996 200.64 94.4863 199.6C95.4996 198.56 96.3396 197.4 97.0063 196.12L97.8063 196.76C97.0863 198.36 96.1529 199.76 95.0063 200.96C93.8863 202.16 92.6329 203.093 91.2463 203.76C89.8863 204.427 88.4863 204.76 87.0463 204.76ZM85.3663 197.52C86.0596 197.44 86.8329 197.2 87.6862 196.8C88.5396 196.4 89.3529 195.893 90.1263 195.28C90.9263 194.667 91.5796 194 92.0863 193.28C92.5929 192.533 92.8463 191.787 92.8463 191.04C92.8463 190.747 92.7929 190.547 92.6862 190.44C92.5796 190.333 92.4063 190.28 92.1663 190.28C91.5529 190.28 90.9129 190.507 90.2463 190.96C89.5796 191.387 88.9263 191.96 88.2862 192.68C87.6463 193.373 87.0729 194.147 86.5663 195C86.0596 195.853 85.6596 196.693 85.3663 197.52ZM116.959 204.24C115.919 204.24 115.146 203.933 114.639 203.32C114.132 202.707 113.879 201.973 113.879 201.12C113.879 200.507 113.972 199.893 114.159 199.28C114.346 198.667 114.532 198.067 114.719 197.48C114.906 196.867 114.999 196.32 114.999 195.84C114.999 195.387 114.906 195.08 114.719 194.92C114.559 194.733 114.346 194.64 114.079 194.64C113.466 194.64 112.746 195.107 111.919 196.04C111.119 196.973 110.119 198.333 108.919 200.12C108.492 200.76 108.092 201.44 107.719 202.16C107.346 202.853 107.012 203.44 106.719 203.92C106.479 203.92 106.159 203.88 105.759 203.8C105.386 203.72 105.052 203.6 104.759 203.44C104.466 203.307 104.319 203.12 104.319 202.88C104.319 202.64 104.452 202.173 104.719 201.48C104.986 200.787 105.292 199.987 105.639 199.08C105.986 198.147 106.292 197.24 106.559 196.36C106.826 195.453 106.959 194.693 106.959 194.08C106.959 193.28 106.679 192.88 106.119 192.88C105.559 192.88 104.879 193.213 104.079 193.88C103.306 194.547 102.479 195.427 101.599 196.52C100.746 197.587 99.9324 198.787 99.1591 200.12C98.4124 201.427 97.7991 202.747 97.3191 204.08C97.0257 204.08 96.6657 204.013 96.2391 203.88C95.8124 203.773 95.4391 203.627 95.1191 203.44C94.7991 203.28 94.6391 203.133 94.6391 203C94.6391 202.973 94.7324 202.6 94.9191 201.88C95.1057 201.133 95.3324 200.213 95.5991 199.12C95.8657 198.027 96.1457 196.907 96.4391 195.76C96.7324 194.613 96.9857 193.613 97.1991 192.76C97.2791 192.467 97.5724 192.213 98.0791 192C98.5857 191.76 99.0257 191.64 99.3991 191.64C99.7724 191.64 100.092 191.76 100.359 192C100.626 192.24 100.759 192.56 100.759 192.96C100.759 193.227 100.706 193.613 100.599 194.12C100.492 194.627 100.359 195.2 100.199 195.84C100.946 194.827 101.746 193.853 102.599 192.92C103.479 191.987 104.372 191.227 105.279 190.64C106.212 190.027 107.119 189.72 107.999 189.72C108.986 189.72 109.652 190.08 109.999 190.8C110.346 191.493 110.519 192.253 110.519 193.08C110.519 193.613 110.452 194.12 110.319 194.6C110.212 195.053 110.052 195.613 109.839 196.28C110.612 195.16 111.479 194.2 112.439 193.4C113.426 192.573 114.492 192.16 115.639 192.16C116.679 192.16 117.399 192.48 117.799 193.12C118.199 193.733 118.399 194.413 118.399 195.16C118.399 195.853 118.279 196.587 118.039 197.36C117.826 198.107 117.599 198.827 117.359 199.52C117.146 200.187 117.039 200.76 117.039 201.24C117.039 201.507 117.106 201.76 117.239 202C117.372 202.213 117.639 202.32 118.039 202.32C118.759 202.32 119.452 201.987 120.119 201.32C120.786 200.653 121.399 199.84 121.959 198.88C122.546 197.893 123.039 196.96 123.439 196.08L124.119 196.92C123.692 198.013 123.132 199.133 122.439 200.28C121.772 201.4 120.986 202.333 120.079 203.08C119.172 203.853 118.132 204.24 116.959 204.24ZM125.605 204.28C124.379 204.28 123.472 203.907 122.885 203.16C122.299 202.44 122.005 201.547 122.005 200.48C122.005 199.093 122.245 197.8 122.725 196.6C123.232 195.4 123.859 194.32 124.605 193.36C125.379 192.373 126.205 191.533 127.085 190.84C127.965 190.147 128.792 189.613 129.565 189.24C130.365 188.867 131.019 188.68 131.525 188.68C131.659 188.68 131.845 188.707 132.085 188.76C132.325 188.813 132.499 188.947 132.605 189.16C132.685 189.107 132.765 189.067 132.845 189.04C132.952 189.013 133.059 189 133.165 189C133.912 189 134.392 189.213 134.605 189.64C134.845 190.067 134.965 190.533 134.965 191.04C134.965 191.493 134.832 192.013 134.565 192.6C134.325 193.187 134.072 193.84 133.805 194.56C133.565 195.253 133.445 196.053 133.445 196.96C133.445 197.44 133.579 197.813 133.845 198.08C134.139 198.32 134.472 198.44 134.845 198.44C135.885 198.44 136.739 198.213 137.405 197.76C138.072 197.28 138.619 196.653 139.045 195.88C139.472 195.107 139.832 194.267 140.125 193.36C140.419 192.427 140.699 191.507 140.965 190.6C140.725 190.307 140.605 189.973 140.605 189.6C140.605 189.013 140.725 188.507 140.965 188.08C141.205 187.627 141.472 187.28 141.765 187.04C142.085 186.773 142.339 186.64 142.525 186.64C142.952 186.64 143.205 186.8 143.285 187.12C143.365 187.44 143.405 187.693 143.405 187.88C143.405 188.013 143.325 188.253 143.165 188.6C143.032 188.947 142.965 189.187 142.965 189.32C142.965 189.587 143.179 189.867 143.605 190.16C144.059 190.427 144.565 190.747 145.125 191.12C145.685 191.493 146.179 191.973 146.605 192.56C147.059 193.12 147.285 193.827 147.285 194.68C147.285 195.48 147.125 196.28 146.805 197.08C146.485 197.88 146.165 198.627 145.845 199.32C145.525 200.013 145.365 200.613 145.365 201.12C145.365 201.52 145.459 201.787 145.645 201.92C145.859 202.027 146.099 202.08 146.365 202.08C146.979 202.08 147.619 201.893 148.285 201.52C148.979 201.12 149.645 200.613 150.285 200C150.925 199.387 151.499 198.747 152.005 198.08C152.512 197.387 152.885 196.76 153.125 196.2L153.925 196.76C153.392 197.907 152.685 199.04 151.805 200.16C150.925 201.28 149.925 202.213 148.805 202.96C147.712 203.707 146.565 204.08 145.365 204.08C144.379 204.08 143.565 203.813 142.925 203.28C142.312 202.747 142.005 202.067 142.005 201.24C142.005 200.467 142.179 199.653 142.525 198.8C142.872 197.947 143.219 197.12 143.565 196.32C143.912 195.52 144.085 194.8 144.085 194.16C144.085 193.467 143.859 192.907 143.405 192.48C142.952 192.027 142.472 191.667 141.965 191.4C141.645 192.36 141.285 193.347 140.885 194.36C140.512 195.373 140.045 196.307 139.485 197.16C138.925 197.987 138.219 198.667 137.365 199.2C136.512 199.707 135.445 199.96 134.165 199.96C133.819 199.96 133.419 199.907 132.965 199.8C132.539 199.693 132.179 199.587 131.885 199.48C131.165 200.893 130.219 202.053 129.045 202.96C127.899 203.84 126.752 204.28 125.605 204.28ZM126.365 202.28C126.712 202.28 127.139 202.107 127.645 201.76C128.179 201.413 128.699 200.96 129.205 200.4C129.739 199.813 130.152 199.2 130.445 198.56C129.885 197.813 129.605 196.693 129.605 195.2C129.605 194.88 129.645 194.453 129.725 193.92C129.832 193.387 129.965 192.84 130.125 192.28C130.312 191.693 130.525 191.2 130.765 190.8C129.859 191.653 128.965 192.653 128.085 193.8C127.232 194.92 126.525 196.053 125.965 197.2C125.405 198.347 125.125 199.4 125.125 200.36C125.125 201.08 125.232 201.587 125.445 201.88C125.685 202.147 125.992 202.28 126.365 202.28ZM160.209 186.16C159.702 186.16 159.236 186.04 158.809 185.8C158.409 185.533 158.209 185.133 158.209 184.6C158.209 183.96 158.556 183.413 159.249 182.96C159.942 182.507 160.662 182.28 161.409 182.28C161.889 182.28 162.289 182.387 162.609 182.6C162.956 182.813 163.129 183.2 163.129 183.76C163.129 184.32 162.822 184.867 162.209 185.4C161.596 185.907 160.929 186.16 160.209 186.16ZM155.489 204.2C154.316 204.2 153.436 203.853 152.849 203.16C152.262 202.467 151.969 201.627 151.969 200.64C151.969 200.027 152.076 199.253 152.289 198.32C152.502 197.387 152.796 196.413 153.169 195.4C153.569 194.36 154.022 193.387 154.529 192.48C155.036 191.573 155.582 190.84 156.169 190.28C156.756 189.693 157.342 189.4 157.929 189.4C158.249 189.4 158.529 189.507 158.769 189.72C159.009 189.907 159.129 190.187 159.129 190.56C159.129 190.907 158.916 191.427 158.489 192.12C158.089 192.813 157.609 193.613 157.049 194.52C156.516 195.427 156.036 196.373 155.609 197.36C155.209 198.32 155.009 199.24 155.009 200.12C155.009 200.973 155.156 201.547 155.449 201.84C155.769 202.107 156.222 202.24 156.809 202.24C157.716 202.24 158.702 201.787 159.769 200.88C160.836 199.973 161.942 198.387 163.089 196.12L163.689 196.76C162.756 199.107 161.569 200.933 160.129 202.24C158.689 203.547 157.142 204.2 155.489 204.2ZM166.695 204.76C164.988 204.76 163.668 204.293 162.735 203.36C161.828 202.453 161.375 201.307 161.375 199.92C161.375 198.747 161.668 197.507 162.255 196.2C162.868 194.867 163.681 193.627 164.695 192.48C165.708 191.307 166.828 190.36 168.055 189.64C169.281 188.92 170.508 188.56 171.735 188.56C172.428 188.56 173.081 188.747 173.695 189.12C174.335 189.467 174.655 190.173 174.655 191.24C174.655 192.253 174.361 193.2 173.775 194.08C173.188 194.96 172.401 195.747 171.415 196.44C170.428 197.133 169.335 197.707 168.135 198.16C166.961 198.587 165.775 198.867 164.575 199C164.548 199.107 164.521 199.227 164.495 199.36C164.495 199.467 164.495 199.653 164.495 199.92C164.495 200.053 164.508 200.293 164.535 200.64C164.588 200.96 164.708 201.307 164.895 201.68C165.081 202.053 165.388 202.373 165.815 202.64C166.241 202.907 166.828 203.04 167.575 203.04C168.695 203.04 169.815 202.733 170.935 202.12C172.081 201.48 173.148 200.64 174.135 199.6C175.148 198.56 175.988 197.4 176.655 196.12L177.455 196.76C176.735 198.36 175.801 199.76 174.655 200.96C173.535 202.16 172.281 203.093 170.895 203.76C169.535 204.427 168.135 204.76 166.695 204.76ZM165.015 197.52C165.708 197.44 166.481 197.2 167.335 196.8C168.188 196.4 169.001 195.893 169.775 195.28C170.575 194.667 171.228 194 171.735 193.28C172.241 192.533 172.495 191.787 172.495 191.04C172.495 190.747 172.441 190.547 172.335 190.44C172.228 190.333 172.055 190.28 171.815 190.28C171.201 190.28 170.561 190.507 169.895 190.96C169.228 191.387 168.575 191.96 167.935 192.68C167.295 193.373 166.721 194.147 166.215 195C165.708 195.853 165.308 196.693 165.015 197.52ZM180.368 205.04C179.034 205.04 177.954 204.76 177.128 204.2C176.328 203.667 175.754 202.987 175.407 202.16C175.061 201.307 174.887 200.44 174.887 199.56C174.887 198.787 174.994 198.187 175.207 197.76C175.421 197.333 175.688 197.027 176.008 196.84C176.328 196.627 176.621 196.467 176.888 196.36C177.181 196.253 177.394 196.133 177.528 196C178.194 195.307 178.874 194.507 179.568 193.6C180.288 192.667 180.901 191.64 181.408 190.52V190.12C181.408 189.053 181.581 188.307 181.928 187.88C182.301 187.427 182.728 187.2 183.208 187.2C183.528 187.2 183.754 187.28 183.888 187.44C184.048 187.6 184.141 187.787 184.168 188C184.168 188.16 184.128 188.347 184.048 188.56C183.994 188.773 183.968 189.067 183.968 189.44C183.968 190.24 184.154 191.16 184.528 192.2C184.928 193.213 185.314 194.293 185.688 195.44C186.088 196.587 186.288 197.76 186.288 198.96C186.288 199.28 186.274 199.573 186.247 199.84C186.221 200.107 186.181 200.36 186.128 200.6C186.954 200.387 187.768 199.933 188.568 199.24C189.368 198.52 190.128 197.467 190.848 196.08L191.328 196.44C190.821 197.96 190.088 199.187 189.128 200.12C188.168 201.027 187.048 201.587 185.768 201.8C185.341 202.893 184.634 203.707 183.648 204.24C182.688 204.773 181.594 205.04 180.368 205.04ZM182.968 200.52C183.021 200.333 183.048 200.12 183.048 199.88C183.074 199.613 183.088 199.413 183.088 199.28C183.061 198.08 182.901 196.893 182.608 195.72C182.314 194.547 182.021 193.347 181.728 192.12C181.248 192.947 180.688 193.84 180.048 194.8C179.408 195.76 178.808 196.533 178.248 197.12C178.674 197.84 179.301 198.52 180.128 199.16C180.954 199.8 181.901 200.253 182.968 200.52ZM180.088 203.28C180.621 203.28 181.114 203.147 181.567 202.88C182.021 202.613 182.381 202.227 182.648 201.72C181.554 201.48 180.568 201.053 179.688 200.44C178.808 199.827 178.128 199.2 177.648 198.56C177.274 198.64 177.088 199 177.088 199.64C177.088 200.52 177.341 201.347 177.848 202.12C178.354 202.893 179.101 203.28 180.088 203.28Z" fill="#2F0B4D"/>
</g>
<defs>
<clipPath id="clip0">
<rect width="245" height="214" fill="white"/>
</clipPath>
</defs>
</svg>
