<?xml version="1.0" standalone="no"?>
<!DOCTYPE svg PUBLIC "-//W3C//DTD SVG 20010904//EN"
 "http://www.w3.org/TR/2001/REC-SVG-20010904/DTD/svg10.dtd">
<svg version="1.0" xmlns="http://www.w3.org/2000/svg"
 width="300.000000pt" height="84.000000pt" viewBox="0 0 300.000000 84.000000"
 preserveAspectRatio="xMidYMid meet">

<g transform="translate(0.000000,84.000000) scale(0.100000,-0.100000)"
fill="#000000" stroke="none">
<path d="M113 819 c-10 -10 -13 -71 -13 -236 l0 -223 40 0 40 0 0 196 0 197
63 -5 c107 -9 180 -60 225 -156 19 -43 23 -65 20 -107 -9 -103 -84 -199 -176
-225 -20 -5 -91 -10 -157 -10 l-119 0 39 -41 40 -41 110 4 c95 3 117 8 160 30
70 36 137 111 165 184 59 158 -21 347 -178 417 -59 26 -239 37 -259 16z" fill="#684A92"/>
<path d="M1170 809 c-9 -15 -8 -24 1 -35 18 -21 57 -18 64 6 14 44 -44 69 -65
29z" fill="#684A92"/>
<path d="M2122 818 c-7 -7 -12 -18 -12 -24 0 -7 41 -117 90 -243 50 -127 90
-239 90 -250 0 -23 -31 -51 -55 -51 -15 0 -11 -8 20 -40 39 -40 74 -51 92 -27
21 26 242 608 237 622 -8 19 -52 31 -65 18 -5 -5 -44 -97 -85 -204 -42 -107
-79 -198 -83 -202 -4 -4 -40 77 -80 180 -40 103 -79 198 -87 211 -16 24 -43
29 -62 10z" fill="#684A92"/>
<path d="M1108 772 c-42 -46 -46 -63 -22 -86 26 -27 57 -19 99 25 22 23 34 39
27 35 -18 -11 -60 19 -64 45 -3 20 -6 18 -40 -19z" fill="#2F0B4D"/>
<path d="M42 757 l-42 -43 0 -211 c0 -179 2 -214 16 -227 21 -22 219 -22 290
-1 102 30 166 116 166 223 0 31 -5 70 -11 85 -32 82 -121 144 -216 149 l-50 2
-3 -42 -3 -42 41 0 c87 0 150 -55 157 -139 5 -57 -19 -107 -66 -138 -30 -20
-47 -23 -132 -23 -94 0 -99 1 -104 23 -3 12 -5 113 -3 225 2 111 3 202 3 202
-1 0 -20 -19 -43 -43z" fill="#2F0B4D"/>
<path d="M2063 768 c-18 -19 -33 -38 -33 -43 0 -22 172 -444 185 -455 18 -15
52 -4 60 19 3 11 -32 113 -84 247 -49 126 -90 237 -92 247 -3 16 -9 13 -36
-15z" fill="#2F0B4D"/>
<path d="M2413 742 c-49 -45 -66 -70 -87 -124 l-25 -66 24 -59 c19 -48 25 -54
31 -38 4 11 25 65 47 120 69 177 86 225 79 225 -4 0 -35 -26 -69 -58z" fill="#2F0B4D"/>
<path d="M794 619 c-18 -5 -48 -27 -68 -49 -30 -34 -36 -47 -36 -86 0 -50 24
-108 43 -101 8 2 11 22 9 55 -3 46 -1 55 26 82 40 40 101 42 137 5 41 -40 31
-78 -38 -152 -25 -26 -27 -33 -13 -33 9 0 31 7 47 16 17 8 37 13 45 10 9 -3
22 7 35 27 29 46 23 136 -12 173 -46 49 -117 71 -175 53z" fill="#684A92"/>
<path d="M1170 601 c-6 -12 -10 -107 -10 -240 l0 -219 -26 -32 c-30 -36 -73
-60 -106 -60 l-23 0 25 -20 c38 -30 101 -26 141 7 63 53 69 82 69 334 0 162
-3 228 -12 237 -18 18 -46 14 -58 -7z" fill="#684A92"/>
<path d="M1440 601 c-37 -20 -80 -88 -80 -128 0 -30 23 -84 42 -101 13 -11 14
-8 5 28 -31 115 112 196 197 111 30 -30 31 -35 34 -132 3 -85 1 -103 -14 -120
-20 -22 -47 -25 -63 -5 -9 11 -18 11 -55 -1 -34 -11 -52 -12 -85 -3 -48 13
-108 62 -128 105 l-14 30 6 -34 c8 -52 49 -114 95 -146 53 -37 149 -47 199
-20 30 15 35 15 56 1 33 -22 62 -20 75 3 13 25 13 235 0 282 -34 122 -167 186
-270 130z" fill="#684A92"/>
<path d="M2637 614 c-4 -4 -7 -56 -7 -115 0 -98 2 -110 23 -133 12 -14 36 -28
52 -32 28 -7 29 -6 15 11 -11 13 -16 53 -20 144 -5 126 -5 126 -30 129 -14 2
-29 0 -33 -4z" fill="#684A92"/>
<path d="M2927 614 c-4 -4 -7 -85 -7 -179 0 -160 -1 -173 -20 -190 -18 -16
-25 -17 -54 -7 -24 9 -41 9 -60 2 -65 -24 -145 -3 -205 53 l-33 32 15 -30 c52
-103 188 -154 294 -110 32 14 38 14 53 0 21 -19 54 -19 69 -1 8 9 11 77 9 222
l-3 209 -25 3 c-14 2 -29 0 -33 -4z" fill="#684A92"/>
<path d="M1385 591 c-97 -58 -122 -168 -61 -261 13 -20 40 -44 59 -53 40 -19
109 -22 139 -6 15 8 27 8 45 -2 44 -24 58 -3 61 90 4 125 -30 176 -116 174
-27 -1 -43 -9 -64 -32 -34 -38 -37 -58 -6 -37 30 21 50 20 82 -5 19 -15 26
-30 26 -53 0 -59 -60 -89 -123 -62 -88 36 -103 161 -29 239 30 32 28 34 -13 8z" fill="#2F0B4D"/>
<path d="M698 582 c-63 -41 -95 -119 -77 -185 13 -49 64 -105 114 -128 91 -42
242 -5 233 55 -3 24 -36 26 -106 6 -23 -7 -46 -10 -49 -6 -4 4 14 28 39 54 59
61 71 84 58 116 -16 42 -68 58 -113 35 l-21 -12 22 -8 c34 -13 26 -48 -22
-103 -49 -56 -59 -55 -88 11 -24 55 -17 110 19 153 29 35 28 36 -9 12z" fill="#2F0B4D"/>
<path d="M1108 561 l-38 -41 0 -180 0 -180 -27 -11 c-51 -20 -58 -26 -58 -50
0 -21 5 -24 43 -27 50 -4 93 22 111 65 8 19 11 99 9 247 l-3 219 -37 -42z" fill="#2F0B4D"/>
<path d="M2577 562 c-35 -36 -37 -41 -37 -107 0 -116 44 -180 142 -206 38 -10
53 -10 93 3 44 15 50 15 73 0 23 -15 26 -15 43 7 17 21 19 42 19 184 l0 161
-39 -38 c-37 -36 -39 -41 -43 -113 -3 -70 -6 -77 -36 -104 -39 -35 -82 -38
-129 -9 -41 25 -56 76 -51 181 2 44 3 79 3 79 -1 0 -18 -17 -38 -38z" fill="#2F0B4D"/>
<path d="M614 345 c29 -120 136 -197 252 -181 79 10 174 61 174 92 0 7 -12 27
-27 45 l-28 32 -5 -24 c-4 -14 -22 -33 -45 -47 -34 -19 -52 -22 -117 -20 -66
3 -82 7 -120 33 -23 17 -53 46 -67 65 l-24 35 7 -30z" fill="#684A92"/>
</g>
</svg>
