<svg width="16" height="16" viewBox="0 0 16 16" fill="none" xmlns="http://www.w3.org/2000/svg">
<path d="M14.9328 13.375L8.43284 2.125C8.33597 1.95781 8.16878 1.875 8.00003 1.875C7.83128 1.875 7.66253 1.95781 7.56722 2.125L1.06722 13.375C0.87503 13.7094 1.11565 14.125 1.50003 14.125H14.5C14.8844 14.125 15.125 13.7094 14.9328 13.375ZM7.50003 6.5C7.50003 6.43125 7.55628 6.375 7.62503 6.375H8.37503C8.44378 6.375 8.50003 6.43125 8.50003 6.5V9.375C8.50003 9.44375 8.44378 9.5 8.37503 9.5H7.62503C7.55628 9.5 7.50003 9.44375 7.50003 9.375V6.5ZM8.00003 12C7.80377 11.996 7.6169 11.9152 7.47951 11.775C7.34213 11.6348 7.26518 11.4463 7.26518 11.25C7.26518 11.0537 7.34213 10.8652 7.47951 10.725C7.6169 10.5848 7.80377 10.504 8.00003 10.5C8.19629 10.504 8.38316 10.5848 8.52055 10.725C8.65793 10.8652 8.73488 11.0537 8.73488 11.25C8.73488 11.4463 8.65793 11.6348 8.52055 11.775C8.38316 11.9152 8.19629 11.996 8.00003 12V12Z" fill="#F7FFAE"/>
</svg>
